<?xml version="1.0" encoding="utf-8"?>
<!-- Generator: Adobe Illustrator 24.2.1, SVG Export Plug-In . SVG Version: 6.00 Build 0)  -->
<svg version="1.1" id="レイヤー_1" xmlns="http://www.w3.org/2000/svg" xmlns:xlink="http://www.w3.org/1999/xlink" x="0px"
	 y="0px" viewBox="0 0 100 100" style="enable-background:new 0 0 100 100;" xml:space="preserve">
<style type="text/css">
	.st0{display:none;fill:#333333;}
	.st1{fill:#333333;}
</style>
<path class="st0" d="M50.1,100.2C22.5,100.2,0,77.7,0,50.1S22.5,0,50.1,0s50.1,22.5,50.1,50.1C100.1,77.7,77.7,100.2,50.1,100.2z
	 M50.1,6.4C26,6.4,6.4,26,6.4,50.1S26,93.8,50.1,93.8s43.7-19.6,43.7-43.7S74.2,6.4,50.1,6.4z"/>
<path class="st1" d="M55.9,25.3c-2.4-5-3.9-9.8-4.7-12.6v35.5c1.2,0.5,2.1,1.6,2.1,3c0,1.8-1.5,3.3-3.3,3.3s-3.3-1.5-3.3-3.3
	c0-1.5,1-2.7,2.3-3.1V12.7c-0.8,2.8-2.2,7.6-4.7,12.6c-3.8,7.8-8.6,14.6-8.6,14.6l3.1,41.8c0,0,2.9,3.2,11.3,3.2s11.3-3.2,11.3-3.2
	l3.1-41.8C64.5,39.9,59.7,33.1,55.9,25.3z"/>
</svg>
